<?xml version="1.0" encoding="utf-8"?>
<!-- Generator: Adobe Illustrator 24.1.1, SVG Export Plug-In . SVG Version: 6.00 Build 0)  -->
<svg version="1.1" id="Layer_1" xmlns="http://www.w3.org/2000/svg" xmlns:xlink="http://www.w3.org/1999/xlink" x="0px" y="0px"
	 viewBox="0 0 512 512" style="enable-background:new 0 0 512 512;" xml:space="preserve">
<g>
	<path d="M151.6,160.9l-82.4,82.4l65.2,65.2l0,0l70.5,70.5l12,11.9l70.5-70.5l11.8-11.9L512,95.7l-82.4-82.4L216.8,226.2
		L151.6,160.9z M464.4,95.7L216.8,343.3L182,308.5l0,0l-65.3-65.2l34.8-34.8l65.2,65.3L429.6,60.9L464.4,95.7z"/>
	<polygon points="454.5,466.4 33.7,466.4 33.7,45.6 349.5,45.6 383.2,11.9 0,11.9 0,500.1 488.2,500.1 488.2,166.7 454.5,200.3 	"/>
</g>
</svg>
